PathFileType	4	(X/Y/Z)	 s02c0103.trc
DataRate	CameraRate	NumFrames	NumMarkers	Units	OrigDataRate	OrigDataStartFrame	OrigNumFrames
200	200	4	50	mm	200	751	2000
Frame#	Time	racr			lacr			c7			jug			rlel			rdr			llel			ldr			s2			lic			ric			lasi			rasi			rpsi			lpsi			rgt			lgt			rth1			rth2			rth3			rth4			rlfc			rmfc			rsh1			rsh2			rsh3			rsh4			rlmal			rmmal			rtoe			rmt5			rmt1			lth1			lth2			lth4			lth3			llfc			lmfc			lsh1			lsh2			lsh3			lsh4			llmal			lmmal			lcal			ltoe			lmt5			SBIKE			LBIKE			RBIKE			
		X1	Y1	Z1	X2	Y2	Z2	X3	Y3	Z3	X4	Y4	Z4	X5	Y5	Z5	X6	Y6	Z6	X7	Y7	Z7	X8	Y8	Z8	X9	Y9	Z9	X10	Y10	Z10	X11	Y11	Z11	X12	Y12	Z12	X13	Y13	Z13	X14	Y14	Z14	X15	Y15	Z15	X16	Y16	Z16	X17	Y17	Z17	X18	Y18	Z18	X19	Y19	Z19	X20	Y20	Z20	X21	Y21	Z21	X22	Y22	Z22	X23	Y23	Z23	X24	Y24	Z24	X25	Y25	Z25	X26	Y26	Z26	X27	Y27	Z27	X28	Y28	Z28	X29	Y29	Z29	X30	Y30	Z30	X31	Y31	Z31	X32	Y32	Z32	X33	Y33	Z33	X34	Y34	Z34	X35	Y35	Z35	X36	Y36	Z36	X37	Y37	Z37	X38	Y38	Z38	X39	Y39	Z39	X40	Y40	Z40	X41	Y41	Z41	X42	Y42	Z42	X43	Y43	Z43	X44	Y44	Z44	X45	Y45	Z45	X46	Y46	Z46	X47	Y47	Z47	X48	Y48	Z48	X49	Y49	Z49	X50	Y50	Z50	
751	3.7550	516.835413	1248.008954	-125.290078	543.990825	1241.016358	-461.088377	518.972157	1279.630557	-300.504682	462.577758	1152.181284	-300.113660	519.161095	975.336064	-72.900166	699.305465	853.554958	-121.619513	521.245424	977.157220	-577.450561	699.924981	846.636029	-511.622243	-2.372755	1142.054743	-280.325787	127.598660	1102.545653	-474.143984	110.492763	1119.704918	-181.705231	167.252978	1068.346875	-443.828552	162.275667	1104.143135	-217.733429	5.272925	1155.590192	-295.474231	23.039715	1156.510842	-383.554250	88.929215	1050.126209	-146.725680	79.946677	1007.582991	-499.632592	181.107904	1016.977948	-136.985993	267.000667	997.853422	-139.858444	332.135494	947.492890	-115.392315	281.280096	1021.263836	-166.547448	441.445749	844.921829	-146.804002	436.252912	826.075571	-257.132924	433.554594	730.797027	-130.175889	424.150014	643.627408	-150.310013	377.027471	571.393015	-145.039664	435.438068	642.880078	-187.474909	324.349375	465.183186	-148.681688	329.181999	483.675293	-231.777049	539.770928	441.355677	-185.428768	434.817213	410.939129	-124.755481	457.708493	430.001022	-233.954077	196.807768	924.032635	-508.987460	269.994217	877.230575	-505.784102	294.222172	899.494371	-490.593506	309.344656	796.975001	-502.942516	366.886111	716.494242	-480.852623	363.964041	687.016390	-375.012729	320.288287	624.525340	-501.864467	291.919259	544.095801	-488.319720	224.127390	484.616879	-492.465009	309.456825	534.971992	-452.231530	154.813434	402.915378	-483.816200	170.472471	388.023563	-407.376966	80.558621	411.104240	-442.233410	250.309354	179.178333	-433.984427	168.398263	244.522874	-499.799539	-126.397946	871.760027	-309.226452	37.242058	86.238274	-514.295620	33.681789	83.125470	-114.539788	
752	3.7600	516.533881	1247.794724	-124.654126	544.077097	1241.102122	-460.369659	518.852185	1279.520349	-299.853165	462.418733	1152.056823	-299.606699	518.766720	974.978165	-73.160180	699.280356	853.578036	-121.628117	521.342485	977.428308	-577.101527	699.803651	846.677834	-511.505692	-2.427843	1142.295593	-280.293070	127.144535	1102.124477	-473.806793	111.362523	1118.853699	-180.917949	166.730949	1067.915629	-443.348267	163.013416	1103.450566	-217.317737	5.297108	1154.007050	-294.524466	23.115181	1155.264706	-382.874674	89.926958	1049.043658	-146.313885	79.968489	1007.359822	-499.536793	182.106015	1014.817989	-136.821604	267.738188	994.388482	-139.943777	332.054264	942.899525	-115.761071	282.224450	1017.643413	-166.611289	440.047151	839.125529	-147.693412	434.047861	820.192503	-257.482503	433.252288	724.821726	-130.851467	425.307142	637.563712	-150.566967	379.346702	564.491865	-145.138048	436.404494	636.859317	-187.868611	328.102063	457.305720	-148.473147	332.593966	475.663582	-231.563435	543.757019	432.963456	-185.601627	438.832376	402.857497	-124.663086	461.579624	421.871856	-233.935758	197.783690	925.248538	-508.813768	271.813322	879.428659	-505.668870	295.548153	902.015800	-490.032227	312.231568	799.903566	-503.057040	370.373461	720.362109	-480.943050	367.037622	690.362387	-375.324799	322.946137	628.622468	-501.860775	292.863095	548.791253	-488.077429	224.027525	490.592636	-492.450158	310.149815	539.497749	-451.892283	152.910467	410.854599	-483.763790	168.676854	395.689791	-407.440989	78.477758	420.100507	-442.406612	246.162069	186.249036	-433.882061	164.934005	252.371529	-499.715896	-126.392884	871.757241	-309.202826	37.236142	86.231499	-514.299559	33.684901	83.105986	-114.549502	
753	3.7650	516.377366	1247.571981	-124.106307	544.173785	1241.188517	-459.707133	518.839082	1279.413070	-299.223296	462.245884	1151.988756	-299.118080	518.399642	974.615518	-73.340938	699.274400	853.601309	-121.626780	521.472106	977.688492	-576.862034	699.692161	846.645949	-511.582113	-2.479984	1142.534944	-280.265765	126.577777	1101.945689	-473.468582	111.993743	1118.118717	-180.349105	166.431278	1067.797981	-443.051603	163.710562	1102.918450	-216.765612	7.460457	1151.687122	-293.193999	22.967928	1154.241866	-381.941488	90.847449	1047.766674	-145.964200	79.974603	1007.316167	-499.344380	183.091414	1012.733738	-136.490563	268.338240	990.805499	-139.960718	331.765069	938.365647	-115.980116	283.074514	1014.101650	-166.399325	438.386061	833.302167	-148.495121	431.781976	814.377002	-258.216329	432.709624	718.765335	-131.480963	425.908405	631.540763	-150.423201	381.232696	557.570148	-145.093657	437.202514	630.722571	-188.144113	331.676328	449.469555	-148.328731	336.083699	467.885209	-231.478511	547.541220	424.097133	-185.750705	442.295854	394.657113	-124.688893	465.225559	413.535957	-233.949525	198.542347	926.511641	-508.653457	273.271327	881.941203	-505.499050	296.544529	904.663711	-489.278423	314.918265	802.927915	-503.297845	374.301361	724.085761	-481.163331	370.037250	693.804584	-375.767152	325.619006	632.915374	-501.883761	293.822306	553.796816	-487.970507	223.833415	497.049381	-492.369944	310.815156	544.444116	-451.560507	151.061687	418.984489	-483.870116	166.581360	403.908138	-407.521794	76.717971	428.430206	-442.265194	242.626823	193.843204	-433.997387	161.791833	260.453981	-499.681860	-126.394095	871.757380	-309.135011	37.244564	86.255981	-514.295130	33.677419	83.121689	-114.575017	
754	3.7700	516.353295	1247.325018	-123.592239	544.357430	1241.252179	-459.044157	518.960257	1279.294423	-298.663345	462.125230	1151.946045	-298.699017	518.120400	974.266842	-73.428256	699.316099	853.603678	-121.580949	521.616128	977.971393	-576.690279	699.572403	846.687537	-511.706853	-2.529232	1142.772089	-280.244060	126.219393	1101.850923	-472.918573	112.695276	1117.510442	-179.551651	166.202021	1067.890087	-442.642914	164.500802	1102.562343	-216.057826	7.698549	1150.612692	-292.197861	23.332214	1153.523636	-381.122842	91.567342	1046.733514	-145.785494	79.967929	1007.508661	-499.077162	184.038802	1010.744368	-136.064524	268.959938	987.297757	-139.614424	331.342442	933.619134	-116.137242	283.992732	1010.442883	-166.083281	436.447593	827.353574	-149.221388	429.424359	808.252527	-258.228829	431.818785	712.754146	-131.917988	426.500103	625.455216	-150.434382	382.841419	550.825573	-145.093755	437.774312	624.596970	-188.254794	334.943105	441.742095	-148.287351	339.229531	460.045611	-231.385649	551.054405	414.997018	-185.878347	445.535341	386.391087	-124.626038	468.591377	405.000615	-233.929710	199.105900	927.932974	-508.492847	274.480570	884.567169	-505.286366	297.277158	907.461211	-488.448428	317.477991	806.239822	-503.665926	378.060812	728.041738	-481.299608	373.274234	697.916167	-375.945799	328.274817	637.525268	-502.014435	294.858623	559.096687	-487.829231	223.815453	503.685487	-492.485789	311.567536	549.521032	-451.497341	149.277135	427.291615	-483.985010	164.985355	412.052722	-407.764759	74.876127	437.200943	-442.322021	239.598992	201.833666	-433.872679	159.053774	268.724189	-499.683777	-126.382852	871.769412	-309.069672	37.244480	86.266898	-514.284703	33.681950	83.111130	-114.595698	
